<mxfile host="app.diagrams.net" modified="2023-07-27T18:28:58.515Z" agent="Mozilla/5.0 (Windows NT 10.0; Win64; x64) AppleWebKit/537.36 (KHTML, like Gecko) Chrome/115.0.0.0 Safari/537.36" etag="ydQV-9PYTsHtQpyD4iY2" version="21.6.5" type="github">
  <diagram name="Page-1" id="MCe3nPTpligBiQOq1xr8">
    <mxGraphModel dx="1134" dy="663" grid="1" gridSize="10" guides="1" tooltips="1" connect="1" arrows="1" fold="1" page="1" pageScale="1" pageWidth="827" pageHeight="1169" math="0" shadow="0">
      <root>
        <mxCell id="0" />
        <mxCell id="1" parent="0" />
        <mxCell id="g6sCCQYDaw_gKyCUOapA-11" value="" style="edgeStyle=orthogonalEdgeStyle;rounded=0;orthogonalLoop=1;jettySize=auto;html=1;" edge="1" parent="1" source="g6sCCQYDaw_gKyCUOapA-1" target="g6sCCQYDaw_gKyCUOapA-2">
          <mxGeometry relative="1" as="geometry" />
        </mxCell>
        <mxCell id="g6sCCQYDaw_gKyCUOapA-1" value="" style="verticalLabelPosition=bottom;shadow=0;dashed=0;align=center;html=1;verticalAlign=top;strokeWidth=1;shape=mxgraph.mockup.containers.userMale;strokeColor=#666666;strokeColor2=#008cff;" vertex="1" parent="1">
          <mxGeometry x="120" y="400" width="80" height="80" as="geometry" />
        </mxCell>
        <mxCell id="g6sCCQYDaw_gKyCUOapA-12" value="" style="edgeStyle=orthogonalEdgeStyle;rounded=0;orthogonalLoop=1;jettySize=auto;html=1;" edge="1" parent="1" source="g6sCCQYDaw_gKyCUOapA-2" target="g6sCCQYDaw_gKyCUOapA-7">
          <mxGeometry relative="1" as="geometry" />
        </mxCell>
        <mxCell id="g6sCCQYDaw_gKyCUOapA-2" value="" style="sketch=0;points=[[0,0,0],[0.25,0,0],[0.5,0,0],[0.75,0,0],[1,0,0],[0,1,0],[0.25,1,0],[0.5,1,0],[0.75,1,0],[1,1,0],[0,0.25,0],[0,0.5,0],[0,0.75,0],[1,0.25,0],[1,0.5,0],[1,0.75,0]];outlineConnect=0;fontColor=#232F3E;gradientColor=#FF4F8B;gradientDirection=north;fillColor=#BC1356;strokeColor=#ffffff;dashed=0;verticalLabelPosition=bottom;verticalAlign=top;align=center;html=1;fontSize=12;fontStyle=0;aspect=fixed;shape=mxgraph.aws4.resourceIcon;resIcon=mxgraph.aws4.api_gateway;" vertex="1" parent="1">
          <mxGeometry x="280" y="400" width="78" height="78" as="geometry" />
        </mxCell>
        <mxCell id="g6sCCQYDaw_gKyCUOapA-16" value="" style="edgeStyle=orthogonalEdgeStyle;rounded=0;orthogonalLoop=1;jettySize=auto;html=1;" edge="1" parent="1" source="g6sCCQYDaw_gKyCUOapA-3" target="g6sCCQYDaw_gKyCUOapA-8">
          <mxGeometry relative="1" as="geometry" />
        </mxCell>
        <mxCell id="g6sCCQYDaw_gKyCUOapA-3" value="" style="sketch=0;points=[[0,0,0],[0.25,0,0],[0.5,0,0],[0.75,0,0],[1,0,0],[0,1,0],[0.25,1,0],[0.5,1,0],[0.75,1,0],[1,1,0],[0,0.25,0],[0,0.5,0],[0,0.75,0],[1,0.25,0],[1,0.5,0],[1,0.75,0]];outlineConnect=0;fontColor=#232F3E;gradientColor=#60A337;gradientDirection=north;fillColor=#277116;strokeColor=#ffffff;dashed=0;verticalLabelPosition=bottom;verticalAlign=top;align=center;html=1;fontSize=12;fontStyle=0;aspect=fixed;shape=mxgraph.aws4.resourceIcon;resIcon=mxgraph.aws4.s3;" vertex="1" parent="1">
          <mxGeometry x="402" y="80" width="78" height="78" as="geometry" />
        </mxCell>
        <mxCell id="g6sCCQYDaw_gKyCUOapA-14" value="" style="edgeStyle=orthogonalEdgeStyle;rounded=0;orthogonalLoop=1;jettySize=auto;html=1;" edge="1" parent="1" source="g6sCCQYDaw_gKyCUOapA-5" target="g6sCCQYDaw_gKyCUOapA-6">
          <mxGeometry relative="1" as="geometry" />
        </mxCell>
        <mxCell id="g6sCCQYDaw_gKyCUOapA-5" value="" style="sketch=0;points=[[0,0,0],[0.25,0,0],[0.5,0,0],[0.75,0,0],[1,0,0],[0,1,0],[0.25,1,0],[0.5,1,0],[0.75,1,0],[1,1,0],[0,0.25,0],[0,0.5,0],[0,0.75,0],[1,0.25,0],[1,0.5,0],[1,0.75,0]];outlineConnect=0;fontColor=#232F3E;gradientColor=#FF4F8B;gradientDirection=north;fillColor=#BC1356;strokeColor=#ffffff;dashed=0;verticalLabelPosition=bottom;verticalAlign=top;align=center;html=1;fontSize=12;fontStyle=0;aspect=fixed;shape=mxgraph.aws4.resourceIcon;resIcon=mxgraph.aws4.eventbridge;" vertex="1" parent="1">
          <mxGeometry x="600" y="240" width="78" height="78" as="geometry" />
        </mxCell>
        <mxCell id="g6sCCQYDaw_gKyCUOapA-15" value="" style="edgeStyle=orthogonalEdgeStyle;rounded=0;orthogonalLoop=1;jettySize=auto;html=1;" edge="1" parent="1" source="g6sCCQYDaw_gKyCUOapA-6" target="g6sCCQYDaw_gKyCUOapA-8">
          <mxGeometry relative="1" as="geometry" />
        </mxCell>
        <mxCell id="g6sCCQYDaw_gKyCUOapA-6" value="" style="shape=collate;html=1;rotation=90;" vertex="1" parent="1">
          <mxGeometry x="524.5" y="265.5" width="20" height="29" as="geometry" />
        </mxCell>
        <mxCell id="g6sCCQYDaw_gKyCUOapA-13" value="" style="edgeStyle=orthogonalEdgeStyle;rounded=0;orthogonalLoop=1;jettySize=auto;html=1;" edge="1" parent="1" source="g6sCCQYDaw_gKyCUOapA-7" target="g6sCCQYDaw_gKyCUOapA-9">
          <mxGeometry relative="1" as="geometry" />
        </mxCell>
        <mxCell id="g6sCCQYDaw_gKyCUOapA-7" value="" style="sketch=0;points=[[0,0,0],[0.25,0,0],[0.5,0,0],[0.75,0,0],[1,0,0],[0,1,0],[0.25,1,0],[0.5,1,0],[0.75,1,0],[1,1,0],[0,0.25,0],[0,0.5,0],[0,0.75,0],[1,0.25,0],[1,0.5,0],[1,0.75,0]];outlineConnect=0;fontColor=#232F3E;gradientColor=#F78E04;gradientDirection=north;fillColor=#D05C17;strokeColor=#ffffff;dashed=0;verticalLabelPosition=bottom;verticalAlign=top;align=center;html=1;fontSize=12;fontStyle=0;aspect=fixed;shape=mxgraph.aws4.resourceIcon;resIcon=mxgraph.aws4.lambda;" vertex="1" parent="1">
          <mxGeometry x="440" y="399" width="80" height="80" as="geometry" />
        </mxCell>
        <mxCell id="g6sCCQYDaw_gKyCUOapA-17" style="edgeStyle=orthogonalEdgeStyle;rounded=0;orthogonalLoop=1;jettySize=auto;html=1;entryX=0.504;entryY=-0.026;entryDx=0;entryDy=0;entryPerimeter=0;" edge="1" parent="1" source="g6sCCQYDaw_gKyCUOapA-8" target="g6sCCQYDaw_gKyCUOapA-1">
          <mxGeometry relative="1" as="geometry" />
        </mxCell>
        <mxCell id="g6sCCQYDaw_gKyCUOapA-8" value="" style="sketch=0;points=[[0,0,0],[0.25,0,0],[0.5,0,0],[0.75,0,0],[1,0,0],[0,1,0],[0.25,1,0],[0.5,1,0],[0.75,1,0],[1,1,0],[0,0.25,0],[0,0.5,0],[0,0.75,0],[1,0.25,0],[1,0.5,0],[1,0.75,0]];outlineConnect=0;fontColor=#232F3E;gradientColor=#F78E04;gradientDirection=north;fillColor=#D05C17;strokeColor=#ffffff;dashed=0;verticalLabelPosition=bottom;verticalAlign=top;align=center;html=1;fontSize=12;fontStyle=0;aspect=fixed;shape=mxgraph.aws4.resourceIcon;resIcon=mxgraph.aws4.lambda;" vertex="1" parent="1">
          <mxGeometry x="400" y="240" width="80" height="80" as="geometry" />
        </mxCell>
        <mxCell id="g6sCCQYDaw_gKyCUOapA-9" value="" style="sketch=0;points=[[0,0,0],[0.25,0,0],[0.5,0,0],[0.75,0,0],[1,0,0],[0,1,0],[0.25,1,0],[0.5,1,0],[0.75,1,0],[1,1,0],[0,0.25,0],[0,0.5,0],[0,0.75,0],[1,0.25,0],[1,0.5,0],[1,0.75,0]];outlineConnect=0;fontColor=#232F3E;gradientColor=#FF4F8B;gradientDirection=north;fillColor=#BC1356;strokeColor=#ffffff;dashed=0;verticalLabelPosition=bottom;verticalAlign=top;align=center;html=1;fontSize=12;fontStyle=0;aspect=fixed;shape=mxgraph.aws4.resourceIcon;resIcon=mxgraph.aws4.sns;" vertex="1" parent="1">
          <mxGeometry x="600" y="400" width="78" height="78" as="geometry" />
        </mxCell>
      </root>
    </mxGraphModel>
  </diagram>
</mxfile>
